<?xml version="1.0" standalone="no"?>
<!DOCTYPE svg PUBLIC "-//W3C//DTD SVG 20010904//EN"
 "http://www.w3.org/TR/2001/REC-SVG-20010904/DTD/svg10.dtd">
<svg version="1.0" xmlns="http://www.w3.org/2000/svg"
 width="160.000000pt" height="160.000000pt" viewBox="0 0 160.000000 160.000000"
 preserveAspectRatio="xMidYMid meet">
<metadata>
Created by potrace 1.14, written by Peter Selinger 2001-2017
</metadata>
<g transform="translate(0.000000,160.000000) scale(0.100000,-0.100000)"
fill="#000000" stroke="none">
<path d="M270 1379 c-45 -88 -88 -188 -97 -222 -8 -34 -24 -79 -34 -99 -32
-64 -59 -196 -59 -293 0 -124 21 -213 76 -325 40 -81 60 -109 138 -185 73 -73
108 -99 176 -133 123 -60 194 -76 330 -76 136 0 209 16 325 73 188 93 322 260
375 467 27 103 27 254 1 356 -18 68 -84 218 -96 218 -3 0 5 -21 18 -47 50 -99
61 -151 61 -278 0 -190 -47 -325 -169 -476 -130 -161 -313 -249 -516 -249
-186 0 -342 70 -480 217 -81 86 -130 165 -163 263 -24 74 -47 213 -41 248 15
71 15 72 44 72 16 0 36 -9 47 -21 10 -11 28 -26 39 -31 10 -6 1 10 -23 37 -37
42 -63 107 -49 121 3 3 16 -11 30 -31 49 -73 128 -112 202 -101 47 8 128 69
140 107 4 12 13 18 21 15 21 -8 28 55 14 129 -8 44 -39 119 -91 227 -44 88
-82 159 -84 156 -6 -5 41 -168 81 -285 38 -111 30 -168 -34 -235 -72 -77 -200
-50 -222 46 -13 60 -10 74 114 454 7 23 12 42 10 42 -2 0 -40 -72 -84 -161z"/>
<path d="M402 760 c-50 -21 -112 -71 -112 -91 0 -28 19 -32 85 -14 71 18 141
19 235 3 53 -9 73 -9 81 -1 19 19 -16 62 -69 86 -53 23 -182 33 -220 17z"/>
<path d="M1019 756 c-64 -17 -109 -51 -109 -83 0 -25 1 -25 48 -19 128 18 203
19 268 1 60 -16 67 -16 82 -2 14 15 13 19 -21 51 -64 60 -165 80 -268 52z"/>
<path d="M715 396 c-55 -25 -135 -107 -135 -137 0 -25 7 -24 76 8 49 23 73 28
139 28 67 0 90 -5 143 -29 34 -16 65 -26 69 -22 11 11 -28 75 -66 108 -43 38
-107 68 -146 68 -16 0 -53 -11 -80 -24z"/>
</g>
</svg>
